<svg width="18" height="18" viewBox="0 0 18 18" fill="none" xmlns="http://www.w3.org/2000/svg">
<g clip-path="url(#clip0_2311_2881)">
<path d="M15.1746 11.1533L12.4305 15.6311C12.1291 16.1258 11.7189 16.5452 11.231 16.8575C10.7432 17.1698 10.1905 17.3666 9.61505 17.4331C9.46343 17.4511 9.31087 17.4601 9.15818 17.46C8.37646 17.459 7.61417 17.2163 6.97568 16.7653C6.31588 17.2596 5.50085 17.5012 4.67825 17.4464C3.85564 17.3915 3.0799 17.0438 2.49155 16.4663C1.90321 15.8888 1.5412 15.1196 1.4711 14.2982C1.401 13.4767 1.62746 12.6574 2.10944 11.9885L1.15277 11.0333C0.74428 10.6248 0.433507 10.1291 0.243728 9.58347C0.0539493 9.03782 -0.00991593 8.45629 0.0569151 7.88246C0.123746 7.30862 0.319541 6.75734 0.629638 6.2699C0.939734 5.78246 1.35609 5.3715 1.84754 5.06779L6.04303 2.47353C7.17954 1.74514 8.51607 1.39199 9.86404 1.46391C11.212 1.53583 12.5034 2.02919 13.5559 2.87438L14.7628 1.66746C14.83 1.59797 14.9102 1.54255 14.999 1.50442C15.0877 1.46629 15.1832 1.44623 15.2798 1.44539C15.3764 1.44455 15.4722 1.46295 15.5616 1.49953C15.651 1.53611 15.7322 1.59013 15.8005 1.65844C15.8689 1.72675 15.9229 1.80797 15.9595 1.89738C15.996 1.98679 16.0144 2.08258 16.0136 2.17918C16.0128 2.27578 15.9927 2.37124 15.9546 2.46C15.9164 2.54876 15.861 2.62903 15.7915 2.69614L14.5861 3.90234C15.3946 4.91519 15.8825 6.14625 15.9873 7.43798C16.0922 8.72971 15.8092 10.0233 15.1746 11.1533V11.1533ZM5.86697 15.7482L3.1614 13.0419C2.94997 13.42 2.86843 13.8571 2.92927 14.286C2.99011 14.7149 3.18999 15.1121 3.49823 15.4165C3.80918 15.7118 4.20469 15.9026 4.62942 15.9621C5.05415 16.0216 5.48685 15.9468 5.86697 15.7482V15.7482ZM13.0845 4.39922C12.2766 3.58357 11.2132 3.07009 10.0721 2.94468C8.93093 2.81927 7.78135 3.08954 6.81563 3.71028L2.61287 6.30454C2.30807 6.49294 2.04985 6.74785 1.85754 7.05019C1.66524 7.35253 1.54382 7.69447 1.50239 8.05038C1.46096 8.4063 1.5006 8.76698 1.61832 9.1054C1.73605 9.44383 1.92881 9.75124 2.18219 10.0046L7.48566 15.3088C7.73944 15.5629 8.04752 15.7561 8.38674 15.8739C8.72595 15.9918 9.08747 16.0312 9.4441 15.9892C9.80074 15.9471 10.1432 15.8248 10.4457 15.6314C10.7483 15.4379 11.003 15.1784 11.1908 14.8723L13.9226 10.4164C14.4561 9.45806 14.663 8.352 14.5117 7.26564C14.3605 6.17927 13.8595 5.17175 13.0845 4.39558V4.39922ZM14.015 17.46C13.8613 17.4603 13.7116 17.4119 13.5871 17.3219C13.4626 17.2318 13.3699 17.1046 13.3222 16.9586C13.2744 16.8125 13.2741 16.6551 13.3214 16.5089C13.3686 16.3627 13.4609 16.2352 13.585 16.1447C14.8589 15.187 15.721 13.7808 15.9967 12.2111C16.016 12.1166 16.0539 12.0269 16.1083 11.9472C16.1626 11.8675 16.2322 11.7994 16.3131 11.7469C16.394 11.6943 16.4845 11.6584 16.5794 11.6411C16.6743 11.6239 16.7717 11.6257 16.8659 11.6464C16.96 11.6672 17.0492 11.7064 17.1281 11.7619C17.2069 11.8174 17.274 11.8881 17.3253 11.9697C17.3767 12.0514 17.4112 12.1424 17.4271 12.2376C17.4429 12.3327 17.4396 12.4301 17.4175 12.5239C17.061 14.4385 15.9999 16.1498 14.4435 17.3203C14.319 17.4111 14.169 17.46 14.015 17.46ZM0.727187 4.17515C0.59282 4.17455 0.461244 4.13675 0.347047 4.06594C0.232851 3.99513 0.140497 3.89408 0.0802245 3.77398C0.0199523 3.65389 -0.0058828 3.51945 0.00558384 3.38557C0.0170505 3.25169 0.0653708 3.12361 0.145187 3.01551C1.33173 1.42999 3.07833 0.356736 5.02889 0.0145763C5.21798 -0.0240127 5.41465 0.014093 5.57564 0.12051C5.73663 0.226928 5.84876 0.39294 5.88734 0.582026C5.92593 0.771112 5.88783 0.967783 5.78141 1.12877C5.67499 1.28976 5.50898 1.40189 5.31989 1.44048C3.71792 1.70501 2.28057 2.57947 1.30919 3.88051C1.2418 3.97153 1.1541 4.04557 1.05306 4.09672C0.952022 4.14787 0.840436 4.17473 0.727187 4.17515V4.17515Z" fill="#374957"/>
</g>
<defs>
<clipPath id="clip0_2311_2881">
<rect width="17.46" height="17.46" fill="white"/>
</clipPath>
</defs>
</svg>
