<svg width="40" height="40" viewBox="0 0 40 40" fill="none" xmlns="http://www.w3.org/2000/svg">
<g id="presupuesto-de-tareas-de-lista-de-verificacion 1" clip-path="url(#clip0_103_4508)">
<path id="Vector" d="M40 31.6667C40 34.4233 37.7567 36.6667 35 36.6667V38.3333C35 39.255 34.2533 40 33.3333 40C32.4133 40 31.6667 39.255 31.6667 38.3333V36.6667H31.22C29.4417 36.6667 27.7817 35.71 26.89 34.1683C26.43 33.37 26.7017 32.3517 27.4983 31.8917C28.2933 31.4283 29.315 31.7033 29.775 32.4983C30.0733 33.015 30.6267 33.3333 31.22 33.3333H35C35.9183 33.3333 36.6667 32.5867 36.6667 31.6667C36.6667 31.035 36.215 30.5033 35.5933 30.3983L30.525 29.555C28.2883 29.1817 26.6667 27.265 26.6667 25C26.6667 22.2433 28.91 20 31.6667 20V18.3333C31.6667 17.4117 32.4133 16.6667 33.3333 16.6667C34.2533 16.6667 35 17.4117 35 18.3333V20H35.4467C37.225 20 38.885 20.9567 39.7767 22.4983C40.2367 23.2967 39.965 24.315 39.1683 24.775C38.3733 25.2383 37.3533 24.965 36.8917 24.1683C36.5933 23.6517 36.04 23.3333 35.4467 23.3333H31.6667C30.7483 23.3333 30 24.08 30 25C30 25.6317 30.4517 26.1633 31.0733 26.2683L36.1417 27.1117C38.3783 27.485 40 29.4017 40 31.6667ZM8.33333 6.66667H10C10.92 6.66667 11.6667 5.92167 11.6667 5C11.6667 4.07833 12.415 3.33333 13.3333 3.33333H16.6667C17.585 3.33333 18.3333 4.08 18.3333 5C18.3333 5.92 19.08 6.66667 20 6.66667H21.6667C24.4233 6.66667 26.6667 8.91 26.6667 11.6667V15C26.6667 15.9217 27.4133 16.6667 28.3333 16.6667C29.2533 16.6667 30 15.9217 30 15V11.6667C30 7.07167 26.2617 3.33333 21.6667 3.33333H21.3817C20.6933 1.39333 18.84 0 16.6667 0H13.3333C11.16 0 9.30667 1.39333 8.61833 3.33333H8.33333C3.73833 3.33333 0 7.07167 0 11.6667V31.6667C0 36.2617 3.73833 40 8.33333 40H21.6667C22.3683 40 23.0683 39.9117 23.7483 39.7383C24.64 39.5083 25.1767 38.6 24.9483 37.71C24.72 36.8183 23.815 36.2783 22.92 36.5083C22.5117 36.6117 22.09 36.6667 21.6683 36.6667H8.33333C5.57667 36.6667 3.33333 34.4233 3.33333 31.6667V11.6667C3.33333 8.91 5.57667 6.66667 8.33333 6.66667Z" fill="#0B693D"/>
<path id="Vector_2" d="M16.2116 11.3218C16.8633 11.9734 16.8633 13.0268 16.2116 13.6784L12.58 17.3101C11.8983 17.9918 11.0033 18.3318 10.1083 18.3318C9.2133 18.3318 8.3183 17.9918 7.63664 17.3101L5.48997 15.1618C4.8383 14.5101 4.8383 13.4551 5.48997 12.8051C6.14164 12.1534 7.19497 12.1534 7.84664 12.8051L9.9933 14.9534C10.0483 15.0084 10.1683 15.0084 10.225 14.9534L13.8566 11.3218C14.5083 10.6701 15.56 10.6701 16.2116 11.3218Z" fill="#374957"/>
<path id="Vector_3" d="M16.2116 21.3218C16.8633 21.9734 16.8633 23.0268 16.2116 23.6784L12.58 27.3101C11.8983 27.9918 11.0033 28.3318 10.1083 28.3318C9.2133 28.3318 8.3183 27.9918 7.63664 27.3101L5.48997 25.1618C4.8383 24.5101 4.8383 23.4551 5.48997 22.8051C6.14164 22.1534 7.19497 22.1534 7.84664 22.8051L9.9933 24.9534C10.0483 25.0084 10.1683 25.0084 10.225 24.9534L13.8566 21.3218C14.5083 20.6701 15.56 20.6701 16.2116 21.3218Z" fill="#374957"/>
</g>
<defs>
<clipPath id="clip0_103_4508">
<rect width="40" height="40" fill="white"/>
</clipPath>
</defs>
</svg>
