<svg width="40" height="40" viewBox="0 0 40 40" fill="none" xmlns="http://www.w3.org/2000/svg">
<g id="fi-rr-building" clip-path="url(#clip0_130_1486)">
<path id="Vector" d="M11.6667 23.3333C11.6667 23.7754 11.4911 24.1993 11.1785 24.5118C10.8659 24.8244 10.442 25 10 25H8.33333C7.89131 25 7.46738 24.8244 7.15482 24.5118C6.84226 24.1993 6.66667 23.7754 6.66667 23.3333C6.66667 22.8913 6.84226 22.4674 7.15482 22.1548C7.46738 21.8423 7.89131 21.6667 8.33333 21.6667H10C10.442 21.6667 10.8659 21.8423 11.1785 22.1548C11.4911 22.4674 11.6667 22.8913 11.6667 23.3333ZM18.3333 21.6667H16.6667C16.2246 21.6667 15.8007 21.8423 15.4882 22.1548C15.1756 22.4674 15 22.8913 15 23.3333C15 23.7754 15.1756 24.1993 15.4882 24.5118C15.8007 24.8244 16.2246 25 16.6667 25H18.3333C18.7754 25 19.1993 24.8244 19.5118 24.5118C19.8244 24.1993 20 23.7754 20 23.3333C20 22.8913 19.8244 22.4674 19.5118 22.1548C19.1993 21.8423 18.7754 21.6667 18.3333 21.6667ZM10 28.3333H8.33333C7.89131 28.3333 7.46738 28.5089 7.15482 28.8215C6.84226 29.134 6.66667 29.558 6.66667 30C6.66667 30.442 6.84226 30.866 7.15482 31.1785C7.46738 31.4911 7.89131 31.6667 8.33333 31.6667H10C10.442 31.6667 10.8659 31.4911 11.1785 31.1785C11.4911 30.866 11.6667 30.442 11.6667 30C11.6667 29.558 11.4911 29.134 11.1785 28.8215C10.8659 28.5089 10.442 28.3333 10 28.3333ZM18.3333 28.3333H16.6667C16.2246 28.3333 15.8007 28.5089 15.4882 28.8215C15.1756 29.134 15 29.558 15 30C15 30.442 15.1756 30.866 15.4882 31.1785C15.8007 31.4911 16.2246 31.6667 16.6667 31.6667H18.3333C18.7754 31.6667 19.1993 31.4911 19.5118 31.1785C19.8244 30.866 20 30.442 20 30C20 29.558 19.8244 29.134 19.5118 28.8215C19.1993 28.5089 18.7754 28.3333 18.3333 28.3333ZM10 8.33333H8.33333C7.89131 8.33333 7.46738 8.50893 7.15482 8.82149C6.84226 9.13405 6.66667 9.55797 6.66667 10C6.66667 10.442 6.84226 10.8659 7.15482 11.1785C7.46738 11.4911 7.89131 11.6667 8.33333 11.6667H10C10.442 11.6667 10.8659 11.4911 11.1785 11.1785C11.4911 10.8659 11.6667 10.442 11.6667 10C11.6667 9.55797 11.4911 9.13405 11.1785 8.82149C10.8659 8.50893 10.442 8.33333 10 8.33333ZM18.3333 8.33333H16.6667C16.2246 8.33333 15.8007 8.50893 15.4882 8.82149C15.1756 9.13405 15 9.55797 15 10C15 10.442 15.1756 10.8659 15.4882 11.1785C15.8007 11.4911 16.2246 11.6667 16.6667 11.6667H18.3333C18.7754 11.6667 19.1993 11.4911 19.5118 11.1785C19.8244 10.8659 20 10.442 20 10C20 9.55797 19.8244 9.13405 19.5118 8.82149C19.1993 8.50893 18.7754 8.33333 18.3333 8.33333ZM10 15H8.33333C7.89131 15 7.46738 15.1756 7.15482 15.4882C6.84226 15.8007 6.66667 16.2246 6.66667 16.6667C6.66667 17.1087 6.84226 17.5326 7.15482 17.8452C7.46738 18.1577 7.89131 18.3333 8.33333 18.3333H10C10.442 18.3333 10.8659 18.1577 11.1785 17.8452C11.4911 17.5326 11.6667 17.1087 11.6667 16.6667C11.6667 16.2246 11.4911 15.8007 11.1785 15.4882C10.8659 15.1756 10.442 15 10 15ZM18.3333 15H16.6667C16.2246 15 15.8007 15.1756 15.4882 15.4882C15.1756 15.8007 15 16.2246 15 16.6667C15 17.1087 15.1756 17.5326 15.4882 17.8452C15.8007 18.1577 16.2246 18.3333 16.6667 18.3333H18.3333C18.7754 18.3333 19.1993 18.1577 19.5118 17.8452C19.8244 17.5326 20 17.1087 20 16.6667C20 16.2246 19.8244 15.8007 19.5118 15.4882C19.1993 15.1756 18.7754 15 18.3333 15ZM40 16.6667V31.6667C39.9974 33.876 39.1185 35.9941 37.5563 37.5563C35.9941 39.1185 33.876 39.9974 31.6667 40H8.33333C6.12401 39.9974 4.00593 39.1185 2.4437 37.5563C0.88147 35.9941 0.00264643 33.876 0 31.6667L0 8.33333C0.00264643 6.12401 0.88147 4.00593 2.4437 2.4437C4.00593 0.88147 6.12401 0.00264643 8.33333 0L18.3333 0C20.5427 0.00264643 22.6607 0.88147 24.223 2.4437C25.7852 4.00593 26.664 6.12401 26.6667 8.33333H31.6667C33.876 8.33598 35.9941 9.2148 37.5563 10.777C39.1185 12.3393 39.9974 14.4573 40 16.6667ZM8.33333 36.6667H23.3333V8.33333C23.3333 7.00725 22.8065 5.73548 21.8689 4.7978C20.9312 3.86012 19.6594 3.33333 18.3333 3.33333H8.33333C7.00725 3.33333 5.73548 3.86012 4.7978 4.7978C3.86012 5.73548 3.33333 7.00725 3.33333 8.33333V31.6667C3.33333 32.9927 3.86012 34.2645 4.7978 35.2022C5.73548 36.1399 7.00725 36.6667 8.33333 36.6667ZM36.6667 16.6667C36.6667 15.3406 36.1399 14.0688 35.2022 13.1311C34.2645 12.1935 32.9927 11.6667 31.6667 11.6667H26.6667V36.6667H31.6667C32.9927 36.6667 34.2645 36.1399 35.2022 35.2022C36.1399 34.2645 36.6667 32.9927 36.6667 31.6667V16.6667ZM31.6667 21.6667C31.337 21.6667 31.0148 21.7644 30.7407 21.9475C30.4666 22.1307 30.253 22.391 30.1269 22.6955C30.0007 23.0001 29.9677 23.3352 30.032 23.6585C30.0963 23.9818 30.2551 24.2788 30.4882 24.5118C30.7212 24.7449 31.0182 24.9037 31.3415 24.968C31.6648 25.0323 31.9999 24.9993 32.3045 24.8731C32.609 24.747 32.8693 24.5334 33.0524 24.2593C33.2356 23.9852 33.3333 23.663 33.3333 23.3333C33.3333 22.8913 33.1577 22.4674 32.8452 22.1548C32.5326 21.8423 32.1087 21.6667 31.6667 21.6667ZM31.6667 28.3333C31.337 28.3333 31.0148 28.4311 30.7407 28.6142C30.4666 28.7973 30.253 29.0577 30.1269 29.3622C30.0007 29.6667 29.9677 30.0019 30.032 30.3252C30.0963 30.6485 30.2551 30.9454 30.4882 31.1785C30.7212 31.4116 31.0182 31.5703 31.3415 31.6346C31.6648 31.6989 31.9999 31.6659 32.3045 31.5398C32.609 31.4137 32.8693 31.2 33.0524 30.926C33.2356 30.6519 33.3333 30.3296 33.3333 30C33.3333 29.558 33.1577 29.134 32.8452 28.8215C32.5326 28.5089 32.1087 28.3333 31.6667 28.3333ZM31.6667 15C31.337 15 31.0148 15.0977 30.7407 15.2809C30.4666 15.464 30.253 15.7243 30.1269 16.0289C30.0007 16.3334 29.9677 16.6685 30.032 16.9918C30.0963 17.3151 30.2551 17.6121 30.4882 17.8452C30.7212 18.0783 31.0182 18.237 31.3415 18.3013C31.6648 18.3656 31.9999 18.3326 32.3045 18.2065C32.609 18.0803 32.8693 17.8667 33.0524 17.5926C33.2356 17.3185 33.3333 16.9963 33.3333 16.6667C33.3333 16.2246 33.1577 15.8007 32.8452 15.4882C32.5326 15.1756 32.1087 15 31.6667 15Z" fill="#0B693D"/>
</g>
<defs>
<clipPath id="clip0_130_1486">
<rect width="40" height="40" fill="white"/>
</clipPath>
</defs>
</svg>
