<svg width="40" height="40" viewBox="0 0 40 40" fill="none" xmlns="http://www.w3.org/2000/svg">
<g id="ventanas-de-la-industria (1) 1" clip-path="url(#clip0_98_1607)">
<path id="Vector" d="M30 40H10C4.485 40 0 35.515 0 30V4.16667C0 1.86833 1.86833 0 4.16667 0H6.31667C8.265 0 9.97667 1.38167 10.3883 3.285L13.4733 17.5083C13.4733 17.5083 18.675 12.3283 18.7217 12.29C19.58 11.6 20.7333 11.4717 21.725 11.95C22.7167 12.4267 23.3333 13.4067 23.3333 14.5067V15.9867C23.3333 15.9867 27.0083 12.3283 27.055 12.29C27.9133 11.6 29.065 11.4717 30.0583 11.95C31.05 12.4267 31.6667 13.4067 31.6667 14.5067V15.9867C31.6667 15.9867 35.3417 12.3283 35.3883 12.29C36.2467 11.6 37.4 11.4717 38.3917 11.95C39.3833 12.4267 40 13.4067 40 14.5067V30C40 35.515 35.515 40 30 40ZM4.16667 3.33333C3.70833 3.33333 3.33333 3.70833 3.33333 4.16667V30C3.33333 33.6767 6.32333 36.6667 10 36.6667H30C33.6767 36.6667 36.6667 33.6767 36.6667 30V15.7083L31.1767 21.18C30.7 21.655 29.985 21.7933 29.36 21.54C28.7383 21.2817 28.3333 20.6733 28.3333 20V15.7083L22.8433 21.18C22.365 21.655 21.6483 21.7933 21.0267 21.54C20.405 21.2817 20 20.6733 20 20V15.7083L14.51 21.18C14.1967 21.4933 13.775 21.6667 13.3333 21.6667H12.3083C11.5233 21.6667 10.845 21.12 10.6783 20.3533L7.13 3.99167C7.04833 3.61 6.705 3.33333 6.31667 3.33333H4.16667ZM16.6667 30V28.3333C16.6667 27.4133 15.92 26.6667 15 26.6667H13.3333C12.4133 26.6667 11.6667 27.4133 11.6667 28.3333V30C11.6667 30.92 12.4133 31.6667 13.3333 31.6667H15C15.92 31.6667 16.6667 30.92 16.6667 30ZM25 30V28.3333C25 27.4133 24.2533 26.6667 23.3333 26.6667H21.6667C20.7467 26.6667 20 27.4133 20 28.3333V30C20 30.92 20.7467 31.6667 21.6667 31.6667H23.3333C24.2533 31.6667 25 30.92 25 30ZM33.3333 30V28.3333C33.3333 27.4133 32.5867 26.6667 31.6667 26.6667H30C29.08 26.6667 28.3333 27.4133 28.3333 28.3333V30C28.3333 30.92 29.08 31.6667 30 31.6667H31.6667C32.5867 31.6667 33.3333 30.92 33.3333 30Z" fill="#0B693D"/>
</g>
<defs>
<clipPath id="clip0_98_1607">
<rect width="40" height="40" fill="white"/>
</clipPath>
</defs>
</svg>
