<svg width="40" height="40" viewBox="0 0 40 40" fill="none" xmlns="http://www.w3.org/2000/svg">
<g id="fi-rr-car" clip-path="url(#clip0_130_166)">
<path id="Vector" d="M34.8332 7.15175C34.2462 5.54545 33.1802 4.15808 31.7793 3.17714C30.3784 2.1962 28.7101 1.66899 26.9999 1.66675H12.9999C11.2897 1.66899 9.6214 2.1962 8.22048 3.17714C6.81957 4.15808 5.75357 5.54545 5.16655 7.15175L0.666553 19.5301C0.223968 20.7492 -0.00166329 22.0364 -0.000114147 23.3334V25.0001C0.00285973 26.2881 0.305607 27.5577 0.884161 28.7084C1.46272 29.8592 2.30119 30.8595 3.33322 31.6301C3.33322 31.6434 3.33322 31.6534 3.33322 31.6667V35.0001C3.33322 36.3262 3.86 37.5979 4.79769 38.5356C5.73537 39.4733 7.00714 40.0001 8.33322 40.0001C9.6593 40.0001 10.9311 39.4733 11.8688 38.5356C12.8064 37.5979 13.3332 36.3262 13.3332 35.0001V33.3334H26.6666V35.0001C26.6666 36.3262 27.1933 37.5979 28.131 38.5356C29.0687 39.4733 30.3405 40.0001 31.6666 40.0001C32.9926 40.0001 34.2644 39.4733 35.2021 38.5356C36.1398 37.5979 36.6666 36.3262 36.6666 35.0001V31.6667C36.6666 31.6534 36.6666 31.6434 36.6666 31.6301C37.6986 30.8595 38.5371 29.8592 39.1156 28.7084C39.6942 27.5577 39.9969 26.2881 39.9999 25.0001V23.3334C40.0016 22.037 39.7759 20.7503 39.3332 19.5317L34.8332 7.15175ZM8.30322 8.29175C8.65561 7.3287 9.29478 6.49683 10.1346 5.90826C10.9744 5.31969 11.9744 5.00273 12.9999 5.00008H26.9999C28.026 5.00205 29.0267 5.3187 29.8672 5.90731C30.7076 6.49592 31.3473 7.32816 31.6999 8.29175L35.3466 18.3334H4.65155L8.30322 8.29175ZM9.99989 35.0001C9.99989 35.4421 9.82429 35.866 9.51173 36.1786C9.19917 36.4912 8.77525 36.6667 8.33322 36.6667C7.89119 36.6667 7.46727 36.4912 7.15471 36.1786C6.84215 35.866 6.66655 35.4421 6.66655 35.0001V33.1667C7.2151 33.2781 7.77348 33.334 8.33322 33.3334H9.99989V35.0001ZM33.3332 35.0001C33.3332 35.4421 33.1576 35.866 32.8451 36.1786C32.5325 36.4912 32.1086 36.6667 31.6666 36.6667C31.2245 36.6667 30.8006 36.4912 30.488 36.1786C30.1755 35.866 29.9999 35.4421 29.9999 35.0001V33.3334H31.6666C32.2263 33.334 32.7847 33.2781 33.3332 33.1667V35.0001ZM36.6666 25.0001C36.6666 26.3262 36.1398 27.5979 35.2021 28.5356C34.2644 29.4733 32.9926 30.0001 31.6666 30.0001H8.33322C7.00714 30.0001 5.73537 29.4733 4.79769 28.5356C3.86 27.5979 3.33322 26.3262 3.33322 25.0001V23.3334C3.34001 22.7722 3.40763 22.2134 3.53489 21.6667H6.66655V23.3334C6.66655 23.7754 6.84215 24.1994 7.15471 24.5119C7.46727 24.8245 7.89119 25.0001 8.33322 25.0001C8.77525 25.0001 9.19917 24.8245 9.51173 24.5119C9.82429 24.1994 9.99989 23.7754 9.99989 23.3334V21.6667H29.9999V23.3334C29.9999 23.7754 30.1755 24.1994 30.488 24.5119C30.8006 24.8245 31.2245 25.0001 31.6666 25.0001C32.1086 25.0001 32.5325 24.8245 32.8451 24.5119C33.1576 24.1994 33.3332 23.7754 33.3332 23.3334V21.6667H36.4649C36.5922 22.2134 36.6599 22.7722 36.6666 23.3334V25.0001Z" fill="#0B693D"/>
</g>
<defs>
<clipPath id="clip0_130_166">
<rect width="40" height="40" fill="white"/>
</clipPath>
</defs>
</svg>
