<svg width="146" height="40" viewBox="0 0 146 40" fill="none" xmlns="http://www.w3.org/2000/svg">
<path d="M12.7583 5.27512C9.1898 5.65561 6.17771 7.72927 5.25681 10.4307C5.04578 11.0585 4.93066 11.9907 4.93066 12.8849C4.94985 15.2439 6.02423 17.0702 8.09624 18.2688C8.55668 18.5161 10.8014 19.3341 13.1036 20.0761C17.6505 21.541 18.4371 21.8834 19.4923 22.7966C21.5835 24.6229 21.3149 27.838 18.8784 29.6644C15.7895 31.9854 10.5328 31.4717 6.67652 28.4278C6.27363 28.1234 5.87074 27.9141 5.77482 27.9712C5.54459 28.1234 5.23763 29.0937 5.10333 30.178L4.96903 31.0341L6.00504 31.662C11.4345 34.9151 18.015 34.7249 21.8329 31.2244C24.8642 28.4468 25.1903 23.7478 22.5811 21.0844C21.3725 19.8288 20.605 19.4863 16.0198 17.9834C13.6983 17.2415 11.3194 16.3854 10.7438 16.1C8.34564 14.9015 7.50149 13.0561 8.42239 11.0585C9.07469 9.61268 11.0508 8.41415 13.3914 8.07171C15.118 7.80537 17.1133 8.20488 19.2045 9.2322C20.0679 9.66976 20.8353 9.95512 20.9312 9.89805C21.1806 9.74586 22.255 7.86244 22.255 7.57708C22.255 7.21561 19.7033 6.07415 17.9383 5.65561C16.0198 5.19903 14.4849 5.08488 12.7583 5.27512Z" fill="#EAEAEA"/>
<path d="M73.5375 5.25607C72.2712 5.44632 71.4463 5.92193 70.6789 6.93022C69.8923 7.93851 69.6428 9.11802 69.6428 11.7814C69.6428 13.2083 69.5661 14.0073 69.4126 14.1595C69.2783 14.2927 68.6644 14.3878 68.0121 14.3878C67.3598 14.3878 66.7459 14.4829 66.6116 14.6161C66.4773 14.7492 66.3813 15.1868 66.3813 15.6244C66.3813 16.0619 66.4773 16.4995 66.6116 16.6327C66.7459 16.7658 67.3598 16.861 68.0121 16.861C68.6644 16.861 69.2783 16.9561 69.4126 17.0892C69.5853 17.2605 69.6428 19.3341 69.6428 25.2697C69.6428 32.9175 69.662 33.2219 70.0074 33.4122C70.487 33.6595 71.4846 33.6595 71.9643 33.4122C72.3096 33.2219 72.3288 32.9175 72.3288 25.3268C72.3288 18.4209 72.3672 17.4127 72.6358 17.1653C72.866 16.918 73.384 16.861 75.0147 16.861C77.3361 16.861 77.5088 16.7658 77.5088 15.5483C77.5088 14.54 77.1443 14.3878 74.8229 14.3878C72.2329 14.3878 72.252 14.4068 72.3672 11.6483C72.5015 8.50924 73.2497 7.57705 75.5519 7.76729C76.9908 7.90046 77.5088 7.6151 77.5088 6.70193C77.5088 5.76973 77.1635 5.46534 75.8781 5.25607C75.2449 5.16095 74.6886 5.08485 74.631 5.08485C74.5735 5.10388 74.0938 5.17998 73.5375 5.25607Z" fill="#EAEAEA"/>
<path d="M79.7534 5.76973C79.6767 5.82681 79.6191 12.0288 79.6191 19.5434C79.6191 32.8605 79.6191 33.2219 79.9837 33.4122C80.2331 33.5263 83.2835 33.6024 88.5979 33.6024C95.4854 33.6024 96.8667 33.5644 97.0586 33.3361C97.1929 33.1839 97.2696 32.6322 97.2312 32.0424L97.1737 31.0341L89.9792 30.939C86.027 30.8819 82.7655 30.8058 82.7272 30.7868C82.708 30.7678 82.708 28.4088 82.7272 25.5551L82.7847 20.3805L89.4804 20.3234C94.0273 20.3044 96.272 20.2092 96.4446 20.0761C96.5789 19.9429 96.694 19.4673 96.694 18.9536C96.694 18.44 96.5789 17.9644 96.4446 17.8312C96.272 17.698 94.0273 17.6029 89.4804 17.5839L82.7847 17.5268V12.961V8.3951L89.8449 8.29998C95.8307 8.22388 96.9243 8.16681 97.0777 7.91949C97.3463 7.51998 97.308 6.1312 97.0394 5.86485C96.8667 5.69364 94.6796 5.63656 88.3484 5.63656C83.6864 5.63656 79.811 5.69364 79.7534 5.76973Z" fill="#EAEAEA"/>
<path d="M100.454 5.94095C100.396 6.11217 100.339 12.2951 100.339 19.6956C100.339 29.9117 100.396 33.2029 100.569 33.3741C100.818 33.6214 102.795 33.6785 103.159 33.4502C103.351 33.3361 103.409 31.7761 103.447 27.1151L103.504 20.9512L106.363 20.8941C110.008 20.8371 110.987 21.0653 112.234 22.34C113.423 23.5575 114.191 25.2317 115.668 29.7024L116.934 33.5073L118.296 33.5644C120.445 33.6595 120.445 33.8307 118.373 28.2185C116.032 21.9405 115.649 21.2175 114.171 20.2663C113.903 20.1141 113.769 19.8858 113.826 19.7717C113.903 19.6575 114.517 19.2961 115.188 18.9917C116.781 18.2497 118.047 17.0892 118.699 15.7575C119.371 14.3878 119.543 11.9527 119.064 10.3356C118.642 8.88973 117.26 7.40583 115.706 6.70193C113.673 5.80778 112.176 5.63656 106.094 5.63656C101.241 5.63656 100.55 5.67461 100.454 5.94095ZM112.771 8.58534C114.651 9.13705 116.128 10.64 116.378 12.219C116.723 14.5971 114.9 16.9561 111.984 17.8502C110.776 18.2307 110.181 18.2878 107.054 18.2878H103.504L103.447 13.5317C103.428 10.9253 103.447 8.68047 103.504 8.54729C103.639 8.16681 111.447 8.20485 112.771 8.58534Z" fill="#EAEAEA"/>
<path d="M123.208 5.86487C123.035 6.03609 122.978 9.34633 122.978 19.5434C122.978 34.6297 122.882 33.6024 124.397 33.6024C126.009 33.6024 125.932 33.8497 126.047 27.0961L126.143 21.1415L130.46 21.0273C135.391 20.8941 136.465 20.6658 138.479 19.3151C140.686 17.8693 141.626 15.9858 141.664 13.0561C141.683 10.7922 141.3 9.61267 140.129 8.31901C139.055 7.1395 137.405 6.30243 135.391 5.92194C133.434 5.56048 123.573 5.5034 123.208 5.86487ZM134.911 8.66145C137.098 9.36535 138.403 11.0205 138.403 13.1322C138.403 15.2819 137.137 16.9561 134.892 17.8502C133.952 18.2117 133.357 18.2688 130.211 18.3449C127.563 18.4019 126.527 18.3639 126.335 18.1927C126.105 18.0024 126.047 17.1463 126.047 13.2463C126.047 10.678 126.105 8.49023 126.182 8.41414C126.412 8.18584 134.124 8.39511 134.911 8.66145Z" fill="#EAEAEA"/>
<path d="M26.1302 9.11804C25.5739 9.68877 25.5547 10.8112 26.0919 11.3439C27.0319 12.2761 28.7778 11.5341 28.7778 10.2215C28.7778 8.88974 27.0319 8.14779 26.1302 9.11804Z" fill="#EAEAEA"/>
<path d="M38.5625 14.2166C38.0829 14.3117 37.1811 14.6351 36.5289 14.9585C29.6221 18.3258 29.2384 28.8083 35.8957 32.6893C38.927 34.4775 43.1094 34.3634 46.5052 32.3849L47.3877 31.8712V30.4444C47.3877 28.6371 47.1767 28.5229 45.7953 29.5693C41.9199 32.5561 37.5457 31.9283 35.1667 28.0663C34.4185 26.8868 34.0923 25.3458 34.1882 23.4244C34.2458 21.9024 34.3417 21.5029 34.8981 20.3805C35.6463 18.8775 36.8166 17.679 38.1212 17.0322C38.8695 16.6707 39.3491 16.5946 40.7688 16.5946C42.7065 16.5946 43.5315 16.861 45.4884 18.1927C46.1023 18.6112 46.793 18.9536 47.004 18.9536C47.3493 18.9536 47.3877 18.8205 47.3877 17.4507V15.9478L46.0639 15.2629C43.8768 14.1214 41.0758 13.7219 38.5625 14.2166Z" fill="#EAEAEA"/>
<path d="M55.1579 14.2737C48.1169 16.0049 45.738 25.9166 51.0715 31.2054C53.1435 33.241 55.5225 34.1161 58.4003 33.9259C62.1222 33.6786 65.5372 30.6156 66.4773 26.7347C67.0912 24.1664 66.7267 21.0654 65.5756 18.8776C64.4052 16.6708 61.9303 14.7303 59.6473 14.2166C58.5154 13.9503 56.3474 13.9883 55.1579 14.2737ZM59.3595 16.88C64.0983 18.6303 65.4029 25.8595 61.6426 29.5693C58.3235 32.8415 53.5272 31.643 51.7621 27.0771C50.9755 25.0225 51.129 22.0166 52.1075 20.1522C53.7574 17.1083 56.5585 15.8337 59.3595 16.88Z" fill="#EAEAEA"/>
<path d="M26.2457 14.597C25.9196 14.7683 25.9004 15.4151 25.9004 23.9V33.0127L26.3225 33.298C26.5527 33.4692 26.9748 33.6024 27.2434 33.6024C27.512 33.6024 27.934 33.4692 28.1643 33.298L28.5863 33.0127V24.0141C28.5863 15.5483 28.5671 14.9966 28.241 14.7112C27.8381 14.3497 26.7637 14.2927 26.2457 14.597Z" fill="#EAEAEA"/>
</svg>
