<svg xmlns="http://www.w3.org/2000/svg" version="1.1" xmlns:xlink="http://www.w3.org/1999/xlink" width="512" height="512" x="0" y="0" viewBox="0 0 24 24" style="enable-background:new 0 0 512 512" xml:space="preserve"><g><path d="m22.555 13.662-1.9-6.836A9.321 9.321 0 0 0 2.576 7.3l-1.471 6.615A5 5 0 0 0 5.986 20H7.1a5 5 0 0 0 9.8 0h.838a5 5 0 0 0 4.818-6.338ZM12 22a3 3 0 0 1-2.816-2h5.632A3 3 0 0 1 12 22Zm8.126-5.185A2.977 2.977 0 0 1 17.737 18H5.986a3 3 0 0 1-2.928-3.651l1.47-6.616a7.321 7.321 0 0 1 14.2-.372l1.9 6.836a2.977 2.977 0 0 1-.502 2.618Z" fill="#5b7d4f" opacity="1" data-original="#000000"></path></g></svg>