<svg width="13" height="18" viewBox="0 0 13 18" fill="none" xmlns="http://www.w3.org/2000/svg">
<path d="M6.72991 14.55C6.32833 14.55 6.00241 14.2248 6.00241 13.8225C6.00241 12.1362 7.00781 10.6528 8.83311 9.64595C10.4969 8.7293 11.3568 6.91418 11.0243 5.02268C10.7166 3.27086 9.27907 1.83259 7.52652 1.52486C6.20829 1.29352 4.92934 1.6318 3.92394 2.4757C2.93236 3.30797 2.36418 4.52725 2.36418 5.82002C2.36418 6.2216 2.03826 6.54752 1.63668 6.54752C1.2351 6.54752 0.90918 6.2216 0.90918 5.82002C0.90918 4.09585 1.66723 2.47061 2.98837 1.36117C4.30951 0.252465 6.05624 -0.210225 7.77823 0.0916873C10.1222 0.502725 12.0457 2.42696 12.4575 4.77097C12.8926 7.24592 11.7176 9.71651 9.53587 10.9205C8.58794 11.4429 7.45741 12.3704 7.45741 13.8225C7.45741 14.2248 7.13149 14.55 6.72991 14.55ZM5.63866 16.3688C5.63866 16.9711 6.12754 17.46 6.72991 17.46C7.33228 17.46 7.82116 16.9711 7.82116 16.3688C7.82116 15.7664 7.33228 15.2775 6.72991 15.2775C6.12754 15.2775 5.63866 15.7664 5.63866 16.3688Z" fill="#374957"/>
</svg>
