<svg width="18" height="18" viewBox="0 0 18 18" fill="none" xmlns="http://www.w3.org/2000/svg">
<g clip-path="url(#clip0_2311_2873)">
<path d="M17.6108 6.66731C17.4619 6.19364 17.1647 5.78045 16.7628 5.48882C16.361 5.19719 15.876 5.04261 15.3796 5.04794H12.2012L11.2359 2.03909C11.0841 1.56548 10.7858 1.15231 10.384 0.859174C9.98219 0.566038 9.49769 0.408081 9.00033 0.408081C8.50298 0.408081 8.01848 0.566038 7.61669 0.859174C7.21491 1.15231 6.9166 1.56548 6.76479 2.03909L5.79943 5.04794H2.62108C2.12621 5.04865 1.64422 5.20572 1.24395 5.49673C0.843685 5.78773 0.545618 6.19779 0.392325 6.66832C0.239031 7.13885 0.238352 7.64579 0.390386 8.11673C0.542419 8.58766 0.839388 8.99851 1.23887 9.29059L3.82578 11.182L2.84224 14.228C2.68329 14.7004 2.68128 15.2115 2.83649 15.6852C2.99171 16.1588 3.29585 16.5696 3.70357 16.8564C4.1043 17.1523 4.58992 17.3108 5.08807 17.3083C5.58622 17.3058 6.07023 17.1425 6.46798 16.8425L9.00033 14.9787L11.5334 16.8404C11.9334 17.1346 12.4164 17.2944 12.913 17.2968C13.4095 17.2992 13.8941 17.1441 14.2969 16.8538C14.6998 16.5635 15.0002 16.1529 15.155 15.6811C15.3098 15.2093 15.311 14.7005 15.1584 14.228L14.1749 11.182L16.7647 9.29059C17.1688 9.00218 17.4692 8.59134 17.6216 8.11887C17.774 7.64641 17.7702 7.13744 17.6108 6.66731ZM15.9063 8.11571L12.8916 10.3192C12.7678 10.4096 12.6757 10.5367 12.6284 10.6825C12.5811 10.8283 12.581 10.9853 12.6283 11.1311L13.774 14.6739C13.832 14.8536 13.8315 15.0471 13.7726 15.2265C13.7137 15.4058 13.5995 15.5619 13.4463 15.6723C13.2931 15.7827 13.1088 15.8416 12.92 15.8406C12.7312 15.8397 12.5475 15.7788 12.3955 15.6669L9.431 13.4845C9.30614 13.3928 9.15526 13.3433 9.00033 13.3433C8.84541 13.3433 8.69453 13.3928 8.56967 13.4845L5.60519 15.6669C5.45321 15.7804 5.26905 15.8424 5.07942 15.8441C4.88979 15.8459 4.70453 15.7871 4.55052 15.6765C4.3965 15.5659 4.28173 15.409 4.22284 15.2288C4.16395 15.0485 4.164 14.8542 4.22299 14.6739L5.3724 11.1311C5.41963 10.9853 5.41959 10.8283 5.3723 10.6825C5.32501 10.5367 5.23288 10.4096 5.10905 10.3192L2.09439 8.11571C1.94257 8.00455 1.82976 7.84826 1.77207 7.66915C1.71439 7.49004 1.71478 7.29728 1.7732 7.11841C1.83161 6.93954 1.94505 6.78371 2.09733 6.67316C2.2496 6.56262 2.43291 6.50303 2.62108 6.5029H6.33122C6.48524 6.50289 6.63528 6.454 6.75974 6.36328C6.8842 6.27255 6.97665 6.14466 7.02378 5.99803L8.15137 2.48358C8.20925 2.30374 8.3227 2.1469 8.47539 2.03564C8.62808 1.92438 8.81213 1.86443 9.00106 1.86443C9.18999 1.86443 9.37404 1.92438 9.52673 2.03564C9.67942 2.1469 9.79287 2.30374 9.85075 2.48358L10.9783 5.99803C11.0255 6.14466 11.1179 6.27255 11.2424 6.36328C11.3668 6.454 11.5169 6.50289 11.6709 6.5029H15.381C15.5692 6.50303 15.7525 6.56262 15.9048 6.67316C16.0571 6.78371 16.1705 6.93954 16.2289 7.11841C16.2873 7.29728 16.2877 7.49004 16.23 7.66915C16.1724 7.84826 16.0596 8.00455 15.9077 8.11571H15.9063Z" fill="#374957"/>
</g>
<defs>
<clipPath id="clip0_2311_2873">
<rect width="17.4595" height="17.4595" fill="white" transform="translate(0.270508 0.270264)"/>
</clipPath>
</defs>
</svg>
