<svg width="34" height="35" viewBox="0 0 34 35" fill="none" xmlns="http://www.w3.org/2000/svg">
<g clip-path="url(#clip0_2200_960)">
<path d="M9.91667 0.5H5.66667C4.16377 0.5 2.72243 1.09702 1.65973 2.15973C0.597022 3.22243 0 4.66377 0 6.16667L0 10.4167C0 11.9196 0.597022 13.3609 1.65973 14.4236C2.72243 15.4863 4.16377 16.0833 5.66667 16.0833H9.91667C11.4196 16.0833 12.8609 15.4863 13.9236 14.4236C14.9863 13.3609 15.5833 11.9196 15.5833 10.4167V6.16667C15.5833 4.66377 14.9863 3.22243 13.9236 2.15973C12.8609 1.09702 11.4196 0.5 9.91667 0.5V0.5ZM12.75 10.4167C12.75 11.1681 12.4515 11.8888 11.9201 12.4201C11.3888 12.9515 10.6681 13.25 9.91667 13.25H5.66667C4.91522 13.25 4.19455 12.9515 3.6632 12.4201C3.13184 11.8888 2.83333 11.1681 2.83333 10.4167V6.16667C2.83333 5.41522 3.13184 4.69455 3.6632 4.1632C4.19455 3.63184 4.91522 3.33333 5.66667 3.33333H9.91667C10.6681 3.33333 11.3888 3.63184 11.9201 4.1632C12.4515 4.69455 12.75 5.41522 12.75 6.16667V10.4167Z" fill="#EAECF0"/>
<path d="M28.3332 0.5H24.0832C22.5803 0.5 21.1389 1.09702 20.0762 2.15973C19.0135 3.22244 18.4165 4.66378 18.4165 6.16667V10.4167C18.4165 11.9196 19.0135 13.3609 20.0762 14.4236C21.1389 15.4863 22.5803 16.0833 24.0832 16.0833H28.3332C29.836 16.0833 31.2774 15.4863 32.3401 14.4236C33.4028 13.3609 33.9998 11.9196 33.9998 10.4167V6.16667C33.9998 4.66378 33.4028 3.22244 32.3401 2.15973C31.2774 1.09702 29.836 0.5 28.3332 0.5V0.5ZM31.1665 10.4167C31.1665 11.1681 30.868 11.8888 30.3366 12.4201C29.8053 12.9515 29.0846 13.25 28.3332 13.25H24.0832C23.3317 13.25 22.611 12.9515 22.0797 12.4201C21.5483 11.8888 21.2498 11.1681 21.2498 10.4167V6.16667C21.2498 5.41522 21.5483 4.69455 22.0797 4.1632C22.611 3.63185 23.3317 3.33334 24.0832 3.33334H28.3332C29.0846 3.33334 29.8053 3.63185 30.3366 4.1632C30.868 4.69455 31.1665 5.41522 31.1665 6.16667V10.4167Z" fill="#EAECF0"/>
<path d="M9.91667 18.9167H5.66667C4.16377 18.9167 2.72243 19.5137 1.65973 20.5764C0.597022 21.6391 0 23.0805 0 24.5834L0 28.8334C0 30.3363 0.597022 31.7776 1.65973 32.8403C2.72243 33.903 4.16377 34.5 5.66667 34.5H9.91667C11.4196 34.5 12.8609 33.903 13.9236 32.8403C14.9863 31.7776 15.5833 30.3363 15.5833 28.8334V24.5834C15.5833 23.0805 14.9863 21.6391 13.9236 20.5764C12.8609 19.5137 11.4196 18.9167 9.91667 18.9167V18.9167ZM12.75 28.8334C12.75 29.5848 12.4515 30.3055 11.9201 30.8368C11.3888 31.3682 10.6681 31.6667 9.91667 31.6667H5.66667C4.91522 31.6667 4.19455 31.3682 3.6632 30.8368C3.13184 30.3055 2.83333 29.5848 2.83333 28.8334V24.5834C2.83333 23.8319 3.13184 23.1112 3.6632 22.5799C4.19455 22.0485 4.91522 21.75 5.66667 21.75H9.91667C10.6681 21.75 11.3888 22.0485 11.9201 22.5799C12.4515 23.1112 12.75 23.8319 12.75 24.5834V28.8334Z" fill="#EAECF0"/>
<path d="M28.3332 18.9167H24.0832C22.5803 18.9167 21.1389 19.5137 20.0762 20.5764C19.0135 21.6391 18.4165 23.0805 18.4165 24.5834V28.8334C18.4165 30.3363 19.0135 31.7776 20.0762 32.8403C21.1389 33.903 22.5803 34.5 24.0832 34.5H28.3332C29.836 34.5 31.2774 33.903 32.3401 32.8403C33.4028 31.7776 33.9998 30.3363 33.9998 28.8334V24.5834C33.9998 23.0805 33.4028 21.6391 32.3401 20.5764C31.2774 19.5137 29.836 18.9167 28.3332 18.9167V18.9167ZM31.1665 28.8334C31.1665 29.5848 30.868 30.3055 30.3366 30.8368C29.8053 31.3682 29.0846 31.6667 28.3332 31.6667H24.0832C23.3317 31.6667 22.611 31.3682 22.0797 30.8368C21.5483 30.3055 21.2498 29.5848 21.2498 28.8334V24.5834C21.2498 23.8319 21.5483 23.1112 22.0797 22.5799C22.611 22.0485 23.3317 21.75 24.0832 21.75H28.3332C29.0846 21.75 29.8053 22.0485 30.3366 22.5799C30.868 23.1112 31.1665 23.8319 31.1665 24.5834V28.8334Z" fill="#EAECF0"/>
</g>
<defs>
<clipPath id="clip0_2200_960">
<rect width="34" height="34" fill="white" transform="translate(0 0.5)"/>
</clipPath>
</defs>
</svg>
